<?xml version="1.0" encoding="utf-8"?>
<svg version="1.1" id="Layer_1" xmlns="http://www.w3.org/2000/svg" xmlns:xlink="http://www.w3.org/1999/xlink" x="0px" y="0px"
	 viewBox="236 27.7 740.1 224.3" style="enable-background:new 236 27.7 740.1 224.3;" xml:space="preserve">
<style type="text/css">
	.st0{fill:#FFFFFF;}
</style>
<path id="SWIRL" class="st0" d="M456.1,140.9C453.7,27.5,302.9-14.8,244.8,91.5c2.6,1.9,6.1,4.4,8.7,6.2c-4.4,9.3-7.4,18.8-9,28.3
	c-1.1,6.2-1.7,12.6-1.7,19.1c0,58.8,47.8,106.6,106.7,106.6S456.1,204,456.1,145.1C456.1,143.7,456.1,142.3,456.1,140.9z
	 M269.1,159.9c-1.4,11.5-0.5,15.1-0.5,16.5l-2.6,0.9c-1-1.9-3.4-8.6-4.5-17.6c-2.8-34.3,20.6-65.2,56.3-71
	c32.7-4.8,64,15.5,71.3,43.9l-2.6,0.9c-0.8-0.8-2.1-3.1-7.1-8.1C339.9,85.9,277.9,104,269.1,159.9z M370.6,179.1
	c-5.3,7.6-14,12.5-23.9,12.5c-16.1,0-29.1-13-29.1-29.1c0-15.3,11.9-27.9,27-29l0,0c9.4-0.4,18.2,4.7,22.3,12.9
	c4.5,8.9,2.9,19.8-4.2,27.2C365.4,175.5,368,177.3,370.6,179.1z M431.3,180.2c-15.4,34.9-47.1,53.2-80.9,52.7
	c-64.9-3.2-83.8-78.1-40.4-105.1l1.9,1.9c-0.7,1-3.3,3-7.3,10.9c-4.7,9.6-6.2,19.2-5.6,25.2c3.4,52.3,76.7,63,101.9,11.2
	c32.1-70.9-53.1-143-128.7-87.9l-1.7-1.7c19.9-31.2,58.8-45.1,95.9-35.8C423.1,65.9,453.6,125,431.3,180.2z"/>
<path id="UBISOFT" class="st0" d="M559.6,99.3v49.2c0,19.6-12,34.2-33.9,34.2c-21.9,0-33.9-14.6-33.9-34.2V99.3h17.8v47.8
	c0,11.9,5.6,18.7,16.1,18.7c10.4,0,16.1-6.8,16.1-18.7V99.3H559.6z M625.9,157.6c0,14.2-11.1,24.4-29.1,24.4h-28.4v-82h27.3
	c15.8,0,26.3,7.6,26.3,19.8c0,9.3-4.3,14.9-10.8,17.6C620,140.7,625.9,146.6,625.9,157.6z M586.3,115.7V133h9.4
	c5.5,0,9.3-3.2,9.3-8.7c0-5.5-3.8-8.7-9.3-8.7H586.3z M596.2,166.3c7.6,0,12-3.5,12-10.3c0-6.8-4.3-10.3-12-10.3h-9.9v20.6H596.2z
	 M632.9,100h17.8v82h-17.8V100z M693.8,133.2c14.1,4.9,21.3,11.2,21.3,23.9c0,17-13,26.4-28.4,26.4c-14.2,0-25.1-6.3-29.7-18
	l14.2-10.5c2.6,7.4,9.3,11.9,16,11.9c5.9,0,10.1-3.2,10.1-8.4c0-4.9-3.2-8-14.9-12.2c-12.7-4.6-22.1-10.9-22.1-24.5
	c0-13.1,10.9-23.1,26.7-23.1c12.6,0,22.3,5,26.9,15l-14.2,9.8c-2.7-6.1-6.9-9.5-13.4-9.5c-5.4,0-9.4,2.9-9.4,7.1
	C677,125.9,681.5,128.8,693.8,133.2z M803.6,141c0,24.1-17.4,42.4-41.8,42.4c-25,0-41.8-17.9-41.8-39.6c0-14.1,5.5-24.3,13.6-30.9
	l-2.8-2.8c6.2-6.4,17.6-11.5,31-11.5C786.2,98.6,803.6,117.1,803.6,141z M785.5,141c0-14.8-9.4-25.5-23.7-25.5
	c-8.3,0-14.5,3.2-18.3,7.3l2.8,2.8c-4.3,3.6-8.2,8.7-8.2,17.7c0,12.4,8.8,23.3,23.7,23.3C776.2,166.5,785.5,155.8,785.5,141z
	 M828.7,116.9v19h34.8v13.6h-34.8V182h-17.8v-82h56.2v16.9H828.7z M937.8,116.9h-23V182H897v-65.1h-23.1V100h63.9V116.9z"/>
</svg>
